<svg height="552" viewBox="-4.7974497 -4.7974497 314.5541894 169.5098894" width="1024" xmlns="http://www.w3.org/2000/svg"><g fill="#ff6501"><path d="m259.78803 63.372 43.14625-33.03325h-34.38125l-28.31625 23.59388h-12.1325v-23.59388h-22.92375v66.0675h22.92375v-23.59675h12.1325l28.99 23.59675h35.7325zm-126.0675 2.01913 14.83125-31.00988 14.15625 31.00988zm163.1475-65.39113h-296.63312047v18.2025h132.79937047l-39.76425 78.20375h26.2935l6.06575-12.812h44.49625l7.41625 12.812h25.615l-39.7625-78.20375h133.47375zm-223.82113 67.4165c.128 5.039-1.60637 10.87738-6.07075 10.78463.0113.0928-27.0225.0928-44.49075 0-.15387.0928.186-29.31638 0-28.98925h42.47075c7.27975-.32713 8.21875 3.8345 8.09075 9.44.128.0303.128 5.4355 0 8.76462zm22.92088-12.13387c.22712-.35788 1.95462-24.75763-24.94425-24.94388h-70.78862047v66.0675c-.15381.31388 73.88187047.31388 74.15824047 0 21.80175.31388 21.80175-23.89362 21.57463-24.2705.36087-.126.22712-16.91075 0-16.85312z"/><path d="m286.57428 124.28463v-3.63038h6.12875v-7.86712l4.5375-1.96688v9.834h7.71625v3.63038h-7.71625v24.50927c0 5.06836.53 6.27979 4.16125 6.27979 1.51375 0 2.57125-.0762 3.555-.22754v3.93262c-1.3625.15234-2.87375.22754-4.31125.22754-6.1275 0-7.9425-2.72363-7.9425-7.41357v-27.30811zm-11.87625 34.57031v-38.20069h4.54v38.20069zm-.52875-48.86719v-5.748h5.5975v5.748zm-13.76875 27.081c0-8.47262-1.36125-13.54-8.62375-13.54-7.26125 0-8.6225 5.06738-8.6225 13.54zm-17.24625 3.63238v2.94875c0 5.29491 1.43625 12.33006 8.6225 12.33006 5.67375 0 8.47375-3.62988 8.3975-8.77394h4.76625c-.53 9.22755-5.5225 12.40529-13.16375 12.40529-6.58 0-13.16125-2.64746-13.16125-14.22016v-9.38088c0-11.0445 4.61375-16.11287 13.16125-16.11287 13.16375 0 13.16375 9.45512 13.16375 20.80375zm-37.14375 18.15381v-54.61519h4.53875v21.104h.15125c2.19375-3.17675 5.14375-5.44637 9.22875-5.44637 9.455 0 10.43875 7.03525 10.43875 12.02737v26.93019h-4.5375v-26.70269c0-4.46337-1.74-8.6235-7.035-8.6235-4.08625 0-8.24625 2.79888-8.24625 11.34625v23.97994zm-13.76875-15.65869v-6.80862c0-2.269 0-12.85888-8.54625-12.85888-8.17125 0-8.17125 7.41363-8.17125 16.33988 0 14.2202 3.405 16.11131 8.3225 16.11131 4.31125 0 8.395-3.47851 8.395-12.78369zm.2275 10.81739-.15125.0752c-2.345 3.63135-5.21875 5.52246-9.68125 5.52246-11.045 0-11.65-10.96875-11.65-19.89504 0-7.33737 0-19.81887 11.725-19.81887 3.48 0 6.8825 1.58837 9.22875 4.53862l.15.0756v-20.27188h4.54v47.05025c0 3.78369.2275 6.27979.45375 7.56494h-4.3875l-.2275-4.8413m-49.095 4.8413h-4.53875v-38.20069h4.53875v4.6895h.15125c2.195-3.17675 5.145-5.44637 9.23-5.44637 9.455 0 10.4375 7.03525 10.4375 12.02737v26.93019h-4.53875v-26.70269c0-4.46337-1.73875-8.6235-7.03375-8.6235-4.085 0-8.24625 2.79888-8.24625 11.34625zm-14.07125-38.20069v38.20069h-3.9325v-4.23633h-.15125c-2.648 3.25244-5.37162 4.99268-9.60687 4.99268-7.86775 0-10.06163-5.74903-10.06163-11.95118v-27.00586h4.53913v26.248c0 1.05914-.2275 9.07769 6.354 9.07769 6.12737 0 8.32075-5.74755 8.32075-8.39599v-26.9297zm-43.3455 38.95704c-8.24513 0-11.4985-4.01025-11.42288-12.10254h4.61438c0 5.22021 1.21037 8.69873 7.03562 8.69873 4.38713 0 6.50538-2.49609 6.50538-6.73242 0-9.98481-17.17188-7.41356-17.17188-20.04643 0-7.03513 4.84125-9.53125 11.4985-9.53125 7.5645 0 9.98538 5.22025 9.98538 11.045h-4.46338c-.22662-4.84138-1.51275-7.41363-6.65675-7.41363-3.2525 0-5.82475 2.11863-5.82475 5.521 0 9.53125 17.17188 6.9605 17.17188 19.74415 0 7.18604-4.16063 10.81739-11.2715 10.81739m-22.92188-22.54252c0-8.47262-1.36125-13.54-8.6235-13.54s-8.6235 5.06738-8.6235 13.54zm-17.247 3.63238v2.94875c0 5.29491 1.4375 12.33006 8.6235 12.33006 5.67338 0 8.47213-3.62988 8.3965-8.77394h4.76563c-.52938 9.22755-5.5215 12.40529-13.16213 12.40529-6.581 0-13.16212-2.64746-13.16212-14.22016v-9.38088c0-11.0445 4.61425-16.11287 13.16212-16.11287 13.16213 0 13.16213 9.45512 13.16213 20.80375zm-19.065-6.27975h-11.04437v-4.084h15.88575v27.30613c-4.84138 1.51417-9.90975 2.27149-15.05325 2.27149-17.7773605 0-16.49123047-17.77737-16.49123047-28.36862 0-10.58938-1.28613003-28.36675 16.49123047-28.36675 10.439 0 15.81 4.46337 15.583 15.05425h-4.84138c0-7.1865-3.102-10.96925-10.74162-10.96925-11.8012905 0-11.6499205 10.51512-11.6499205 24.28175 0 13.7685-.15137 24.2822 11.6499205 24.2822 4.16012 0 7.63962-.60352 10.21187-1.5874z"/></g></svg>