<svg height="171.233" viewBox="0 0 1028.9351 171.233" width="1028.9351" xmlns="http://www.w3.org/2000/svg"><path d="m0 0v-14.77c0-.96.474-1.453 1.44-1.502.012-.001 4.867-.001 4.867-.001v-1.657c0-.185-.1-.315-.306-.315h-7.879c-2.434 0-2.794 1.34-2.794 2.557v14.684c0 .693.264 1.021 1.083 1.003z" transform="matrix(9.07380925846 0 0 -9.07380925846 783.7856093353 .02084762991)"/><path d="m0 0 .001-17.283c0-.769-.326-.962-.98-.962h-3.697v17.291c0 .57.218.953 1.047.953z" transform="matrix(9.07380925846 0 0 -9.07380925846 701.39448929264 .02084762991)"/><path d="m0 0c0 1.391.003 2.517 2.288 2.517h10.044v-1.756c0-.125-.059-.238-.234-.238l-6.019.002c-.809 0-1.216-.388-1.216-1.204v-4.633h7.082l.001-1.84c0-.163-.102-.249-.262-.249h-6.821v-7.351c-.015-.709-.369-.991-1.147-.977h-3.716z" transform="matrix(9.07380925846 0 0 -9.07380925846 0 22.83873155803)"/><path d="m0 0v-13.907c0-1.194.169-2.031 1.007-2.515 1.123-.65 3.025-.66 4.17-.018.783.437 1.082 1.139 1.082 2.529v12.984c0 .584.223.927 1.039.927h3.635l.001-13.496c0-3.135-1.974-4.421-3.719-4.898-2.322-.633-5.849-.643-8.04.015-2.618.788-3.841 2.338-3.844 4.882l-.002 12.56c-0 .606.218.937.915.937z" transform="matrix(9.07380925846 0 0 -9.07380925846 177.7178185783 .00452515946)"/><path d="m0 0c-.922 0-1.448-.43-1.656-1.253l-2.977-12.581-.081.002-3.075 13.832h-4.204c-.811 0-1.066-.417-1.066-1.061v-17.183h1.776c.286 0 .404.142.404.433v14.407h.281l3.801-14.84h2.489c.938 0 1.287.385 1.518 1.312l3.412 13.528h.276l-.001-14.84 3.321.005c.815 0 1.187.313 1.187 1.114v17.126z" transform="matrix(9.07380925846 0 0 -9.07380925846 979.89153799108 .02993862611)"/><path d="m0 0h-4.674v-8.33h3.696c.651 0 .979.191.979.962 0 0-.001 3.563-.001 7.368" transform="matrix(9.07380925846 0 0 -9.07380925846 478.47466734496 89.98854853513)"/><path d="m0 0c.164.133.26.233.272.519v5.835h-3.629c-.817 0-1.044-.399-1.044-.967v-8.834z" fill="#ed1a3a" transform="matrix(9.07380925846 0 0 -9.07380925846 476.00294944631 57.68941673377)"/><path d="m0 0c2.03.287 2.705 1.493 2.705 3.271v12.54c0 .75.406.993.93.993h3.744v-11.857c-0-2.916-.614-4.389-2.341-5.632-.899-.645-2.471-1.381-5.877-1.381-1.95 0-2.817.11-2.934.137-.165.038-.232.139-.232.282v1.531c.801-.023 2.635-.079 4.005.116" transform="matrix(9.07380925846 0 0 -9.07380925846 330.60779595272 152.47718448559)"/><path d="m0 0c-2.283 0-2.284-1.126-2.284-2.517v-4.701c0-.097-.042-.136-.086-.179l-3.197-2.519h3.283v-8.329h3.714c.778-.015 1.132.268 1.145.976v7.351h6.821c.16 0 .263.087.263.249v1.841h-7.084v4.633c0 .815.408 1.204 1.216 1.204l6.021-.002c.173 0 .234.112.234.237v1.756z" transform="matrix(9.07380925846 0 0 -9.07380925846 542.72718383312 .00452515946)"/></svg>