<svg xmlns="http://www.w3.org/2000/svg" viewBox="15.51 25.55 252.49 19.79"><path d="m268 26.55a20.93 20.93 0 0 0 -6.26-1c-7.43 0-12.36 4.68-12.36 11.41 0 5.18 3.34 8.35 8.8 8.35a25.92 25.92 0 0 0 7.13-1.2l-.08-1.81a28.84 28.84 0 0 1 -6.62 1c-4.46 0-7.1-2.53-7.1-6.62 0-5.43 4.12-9.27 10.19-9.27a21.09 21.09 0 0 1 5.62.89zm-22.6-.55h-2l-3.32 18.9h2zm-8.93 0h-2l-2.78 15.75-9.58-15.75h-1.78l-3.33 18.9h1.95l2.78-15.7 9.61 15.7h1.81zm-35 17.51a6.25 6.25 0 0 1 -6.62-6.6 9 9 0 0 1 9.46-9.46c4.09 0 6.62 2.62 6.62 6.6a9.24 9.24 0 0 1 -9.46 9.46m3.17-17.93c-6.9 0-11.89 4.7-11.89 11.58 0 4.93 3.31 8.18 8.38 8.18 6.71 0 11.91-4.82 11.91-11.58 0-4.93-3.23-8.18-8.41-8.18m-28.4 10.74 1.53-8.66c1.61-.06 2.84-.08 4.34-.08 2.84 0 4.65 1.14 4.65 3.51 0 3.2-2.64 5.23-6.07 5.23zm8.83 8.57h2.39l-4.18-7.35c3.29-1 5.46-3.4 5.46-6.76s-2.45-5-6.37-5c-2.17 0-4.4.11-6.26.2l-3.32 18.92h1.95l1.2-6.82h3.79c.53 0 1 0 1.53-.06zm-21.5-17.12h7.44l.31-1.81h-17l-.31 1.81h7.49l-3 17.12h2zm-13.56-1.22a20.93 20.93 0 0 0 -6.26-1c-7.43 0-12.36 4.68-12.36 11.41 0 5.18 3.34 8.35 8.8 8.35a25.92 25.92 0 0 0 7.13-1.2l-.08-1.81a28.84 28.84 0 0 1 -6.62 1c-4.46 0-7.1-2.53-7.1-6.62 0-5.43 4.12-9.27 10.19-9.27a21.09 21.09 0 0 1 5.62.89zm-33.58 8 1.2-6.74h11.19l.31-1.81h-13.12l-3.38 18.9h13.17l.31-1.81h-11.17l1.2-6.74h10l.31-1.84zm-8.6 10.38.33-1.78h-10.53l3-17.15h-2l-3.31 18.9zm-27.16-10.42 1.2-6.74h11.14l.36-1.77h-13.17l-3.34 18.9h13.15l.31-1.81h-11.15l1.2-6.74h10l.31-1.84z" fill="#1d1d1b"/><path d="m57.45 33.68.39-2.28h8.16l1-5.4h-14.7l-3.3 18.9h6.51l1-5.51h6.79l1-5.71zm-21.78 1.92.78-4.51h1.64a1.64 1.64 0 0 1 1.91 1.84 2.42 2.42 0 0 1 -2.65 2.67zm3.4-9.83c-2.7 0-4.9.08-8.21.2l-3.35 18.93h6.49l.7-3.9h1.67c6.54 0 10.33-3.37 10.33-9 0-4.06-2.67-6.21-7.63-6.21m-13.71.21h-6.51l-3.34 18.9h6.49z" fill="#e3051b"/></svg>