<svg enable-background="new 0 0 380 100" viewBox="0 0 380 100" xmlns="http://www.w3.org/2000/svg"><g fill="#181818"><path d="m141.9 36.2c0 4.7-3.8 8.6-8.6 8.6h-20.8v-24.7h20.8c4.7 0 8.6 3.8 8.6 8.6zm-8.6-26h-29.7c-.8 0-1.4.6-1.4 1.4v65.8c0 .8.6 1.4 1.4 1.4h7.5c.8 0 1.4-.6 1.4-1.4v-22.7h20.8c10.2 0 18.4-8.3 18.4-18.4v-7.6c.1-10.2-8.2-18.5-18.4-18.5z"/><path d="m217.4 78.8h-7.2c-.8 0-1.4-.6-1.4-1.4v-27.4c0-11.2 9.1-20.3 20.3-20.3h1.9c.8 0 1.4.6 1.4 1.4v7.2c0 .8-.6 1.4-1.4 1.4h-1.9c-5.8 0-10.4 4.7-10.4 10.4v27.4c.1.7-.5 1.3-1.3 1.3z"/><path d="m183.5 29.7c-6.4 0-12.1 1.9-15.1 6.2v-24.3c0-.8-.6-1.4-1.4-1.4h-7.2c-.8 0-1.4.6-1.4 1.4v65.8c0 .8.6 1.4 1.4 1.4h7.2c.8 0 1.4-.6 1.4-1.4v-24c0-8.5 5.4-14.1 12.7-14.1 6.5 0 11.5 4 11.5 12v26.1c0 .8.6 1.4 1.4 1.4h7.2c.8 0 1.4-.6 1.4-1.4v-27.1c-.1-9.2-5.1-20.6-19.1-20.6z"/><path d="m356.1 38.9c7.4 0 11.7 4.7 13.3 11.3h-27.2c1.6-6.6 6.8-11.3 13.9-11.3zm.6-9.2c-13.9 0-24.9 10.8-24.9 25.1s11.2 25.1 25.1 25.1c7.9 0 14.9-3 19.6-7.9.5-.5.5-1.4 0-1.9l-4.6-4.6c-.5-.5-1.3-.5-1.9-.1-3.5 3.1-8.2 4.9-12.8 4.9-7.3 0-13.4-5-15-12h36.1c.7 0 1.3-.6 1.4-1.3.1-.8.1-1.5.1-2.3.7-13.8-9.3-25-23.1-25z"/><path d="m283.4 30.7h-7.2c-.8 0-1.4.6-1.4 1.4v3.5c-4.1-3.7-9.4-5.9-15.2-5.9-13.8 0-25.1 11.2-25.1 25.1s11.2 25.1 25.1 25.1c5.7 0 11.1-2.2 15.2-5.9v3.5c0 .8.6 1.4 1.4 1.4h7.2c.8 0 1.4-.6 1.4-1.4v-45.4c0-.8-.6-1.4-1.4-1.4zm-23.7 39.2c-8.4 0-15.2-6.8-15.2-15.2s6.8-15.2 15.2-15.2 15.2 6.8 15.2 15.2-6.8 15.2-15.2 15.2z"/><path d="m320.9 41.8 4.6-4.6c.6-.6.5-1.5-.1-2-2.2-1.8-7.7-5.5-16.2-5.5-11.3 0-17.3 7.3-17.3 14.3 0 16.6 25.5 13.1 25.5 20.9 0 4.5-4.5 6.1-8.5 6.1-5.3 0-9.7-3.7-11.5-5.6-.5-.5-1.4-.5-1.9 0l-4.6 4.7c-.5.5-.5 1.3 0 1.9 2.1 2.3 8.4 8 18.1 8 12.3 0 18.6-7.5 18.6-15.3 0-16.5-25.6-12.9-25.6-20.7 0-2.7 2.6-5.1 7.5-5.1 4.8 0 8.1 2.1 9.6 3.2.6.3 1.3.2 1.8-.3z"/><path d="m48.8 0h-43.1c-3 0-5.5 2.4-5.5 5.5v67.9c0 3 2.4 5.5 5.5 5.5h28.5v-10.4h-23.8v-58.3h38.3c5.1 0 9.2 4.1 9.2 9.2v39.9c0 5.1-4.1 9.2-9.2 9.2h-8.2c-.8 0-1.4.6-1.4 1.4v7.5c0 .8.6 1.4 1.4 1.4h8.2c10.7 0 19.4-8.7 19.4-19.4v-40c.1-10.7-8.6-19.4-19.3-19.4z"/></g><path d="m25.3 98.9-21-16.2c-2.7-2.1-4.3-5.3-4.3-8.7v-68.5c0-4.5 5.2-7.1 8.8-4.3l21.1 16.2c2.7 2.1 4.3 5.3 4.3 8.7v68.6c-.1 4.4-5.3 6.9-8.9 4.2z" fill="#03eab3"/></svg>