<svg fill="none" height="113" viewBox="0 0 227 113" width="227" xmlns="http://www.w3.org/2000/svg"><path d="m122.3.356021c.7-.1 2 2.599999 2.7 2.399999.8-.2 1.9-2.599999 3-2.399999.4.1 2.2 3.699999 2.2 3.699999 14.7.7 32.7 18.39998 35 20.19998 1.1.9 5.8 5.8 14.5 9.6 3.6 1.6 7.1 2.2 10.4 2 4.5-.3 9.4-4.2 12.4-9.5 3.8-6.6 5.4-18.09998 16.4-24.69998 1.5-.9 5-3 7.1-.4 1.6 2.1.3 5.6-1.4 7.2-1 1-3 2.09998-6.7 3.79998-1.3.6-3.3 2.1-4.1 2.7-3.9 3-6.8 9.9-10 17.3 0 0-1.4 3.7-7.3 7.7-1 .7-.1 1.2 1 2.6 1.4 1.8 4.2 9.5 3.9 21-.1 2 .8 2.9 1.7 4.6 1.6 2.9 4.8 2.3 4.7 6.1-.1 5.1 3.7 6.2 2.4 8.5-.8 1.7-.6 3.4-.5 5.1 0 .9.4 2.1-1.3 2-7.2-.4-6.7-10-6.6-13.4.2-.4-.2-1.2-.3-1.2-.3-.3-4.8-3.7-5.1-4-5.4-5.5-9-10.5-11-15.6-1.3-3.4-2.7-6.8-5-8.9-2.6-2.4-5.8-3.7-8.6-3.8-20-.1-24.1-8.9-29.5-13.2-.2-.1-.7-.4-.9-.4-.3 0-.6.4-.7.5-2.1 2.2-4.2 2.9-7.1 2.9-6.7 0-14-5.9-15.3-4.6-1 1-.1 3.1-1.9 3.5-2.6.5-5.3-2-5.1-4.2.4-3.9 4.4-5 7.9-5.4 2.9-.3 5.2.5 5.8.5 1.6.2 1.9-1.7 1.6-3-.3-1.4-1.6-1.7-2.9-2.1-1.6-.5-3.4.9-4.6.4-1.4-.5-1.5-1.2-2.7-2.2-1.5-1.3-3.2-1.6-3.2-3.5 0-1.7 2.1-1.8 2.7-3.39998.3-.8.2-1.6.4-2 .7-1.3 2-1.2 3.1-2.3 1.4-1.2 2.1-3.999999 2.9-4.099999zm-64.4 105.799979c-1.4-.1-2.6-1.1-2.6-2.5v-45.6h-15v50.3c0 2.5 2 4.5 4.4 4.5h26.3c2.5 0 4.5-2 4.5-4.5v-50.3h-15v45.6c-.1 1.3-1.3 2.4-2.6 2.5zm50.3-48.2h-22.7c-2.7 0-4.9 2.2-4.9 4.9v49.8h15v-45.7c0-1.4 1.2-2.5 2.6-2.5s2.5 1.1 2.6 2.5v45.8h15v-45.8c0-1.4 1.1-2.5 2.5-2.5s2.5 1.1 2.6 2.5v45.7h15v-49.8c0-2.7-2.2-4.9-4.9-4.9zm-77.9 41c2.7 0 4.9-2.2 4.9-4.9v-31.2c0-2.7-2.1-4.9-4.8-4.9h-30.4v54.8h15v-13.8zm-10.1-9.3c0 1.5-1.2 2.6-2.6 2.6h-2.6v-27.7h2.6c1.3 0 2.6 1.1 2.6 2.6zm140.9 23.1h15v-49.8c0-2.7-2.2-4.9-4.9-4.9h-25.4c-2.7 0-4.9 2.2-4.9 4.9v49.8h15v-13.7h5.1v13.7m-5-20.5v-25.2c.1-1.4 1.2-2.5 2.6-2.5s2.5 1.1 2.6 2.5v25.2z" fill="#000"/></svg>