<svg enable-background="new 0 0 149.2 48.5" viewBox="0 0 149.2 48.5" xmlns="http://www.w3.org/2000/svg" xmlns:xlink="http://www.w3.org/1999/xlink"><clipPath id="a"><path d="m23 6.4h103.3v35.9h-103.3z"/></clipPath><g clip-path="url(#a)" fill="#181818"><path d="m45.6 28.2c0 1.3-.2 2.6-.7 3.8-.4 1.1-1 2.1-1.8 3-.8.8-1.7 1.5-2.8 1.9-1.1.5-2.2.7-3.4.7s-2.4-.2-3.4-.6-2-1.1-2.7-1.9c-.8-.9-1.4-1.9-1.8-3-.4-1.2-.7-2.5-.7-3.9v-21.8h-5.3v22.1c0 1.9.3 3.9 1 5.7.6 1.6 1.6 3.1 2.8 4.4 1.2 1.2 2.6 2.2 4.2 2.8 1.7.7 3.5 1 5.3 1s3.5-.3 5.2-1c1.6-.7 3-1.6 4.2-2.9v3.3h5.2v-35.4h-5.3z"/><path d="m78.7 19.4c-1.2-1.2-2.7-2.2-4.3-2.9-1.7-.7-3.5-1.1-5.3-1.1-1.7 0-3.4.3-5 1-1.5.7-2.9 1.6-4.1 2.8v-12.8h-5.1v35.3h5v-3.2c1.2 1.2 2.6 2.1 4.1 2.8 1.6.7 3.3 1 5.1 1s3.6-.3 5.3-1.1c1.6-.7 3.1-1.6 4.3-2.9 1.2-1.2 2.2-2.7 2.9-4.3s1.1-3.4 1.1-5.2-.4-3.6-1.1-5.2-1.7-3-2.9-4.2zm-1.8 13c-.5 1.1-1.1 2-1.9 2.8s-1.7 1.5-2.8 1.9c-1.1.5-2.2.7-3.4.7s-2.4-.2-3.5-.7c-1-.5-2-1.1-2.8-1.9s-1.4-1.8-1.9-2.8c-.5-1.1-.7-2.3-.7-3.5s.2-2.4.7-3.5 1.1-2 1.9-2.9c1.7-1.7 3.9-2.6 6.2-2.6 1.2 0 2.3.2 3.4.7 1 .4 2 1.1 2.8 1.9s1.4 1.8 1.9 2.9.7 2.3.7 3.5c.1 1.2-.1 2.4-.6 3.5z"/><path d="m106.9 19.3c-1.2-1.2-2.5-2.1-4.1-2.8-2.4-1-5.1-1.3-7.7-.8s-5 1.8-6.8 3.7c-1.2 1.2-2.1 2.7-2.8 4.3-1.4 3.3-1.4 7.1 0 10.4.7 1.6 1.7 3 2.9 4.3 1.2 1.2 2.7 2.2 4.3 2.8 1.7.7 3.5 1 5.4 1 2.2 0 4.4-.5 6.4-1.5 1.9-1 3.5-2.3 4.7-4l-3.7-2.7c-.8 1.2-1.9 2.2-3.2 2.8-1.3.7-2.7 1-4.2 1-1 0-2.1-.2-3-.6-1.9-.7-3.5-2.1-4.5-3.9-.5-.9-.8-1.9-1-2.9h20.9v-1.7c0-1.8-.3-3.6-1-5.3-.6-1.4-1.4-2.9-2.6-4.1zm-17.2 7.2c.4-1.9 1.4-3.5 2.8-4.8 1.4-1.2 3.2-1.8 5-1.8s3.6.6 5 1.8 2.4 2.9 2.8 4.8z"/><path d="m124.5 15.8c-1.2 0-2.5.3-3.5.8s-2 1.5-2.6 2.5v-3.2h-5v25.7h5.1v-14.5c-.1-1.7.5-3.5 1.6-4.8.5-.6 1.2-1 1.9-1.3s1.5-.5 2.3-.4h2.1v-4.8z"/></g><path d="m.1 0h149v48.6h-149z" fill="none"/></svg>