<svg xmlns="http://www.w3.org/2000/svg" aria-labelledby="header-logo-title" class="c-logo js-logo" height="37" role="img" viewBox="0 0 178 37" width="178">
<title id="header-logo-title">Ubilabs Homepage</title>
<path class="u" d="M33.93 10.62 C32.48 10.62 31.03 10.62 29.59 10.62 29.39 10.62 29.23 10.72 29.13 10.88 28.21 12.52 27.29 14.16 26.37 15.8 26.29 15.94 26.21 16.07 26.13 16.22 26.12 16.22 26.12 16.23 26.12 16.23 26.1 16.27 26.08 16.31 26.06 16.35 23.57 20.77 21.09 25.19 18.61 29.62 18.05 30.59 17.38 31.05 16.16 31.05 14.58 31.05 13.61 30.13 13.61 28.45 13.61 22.64 13.61 16.83 13.61 11.03 13.61 10.83 13.41 10.62 13.2 10.62 11.58 10.62 9.97 10.62 8.36 10.62 8.19 10.62 8 10.82 8 11.03 8 16.85 8 22.67 8 28.49 8 31.6 9.43 34.06 11.76 35.38 12.99 36.07 14.46 36.45 16.11 36.45 19.38 36.45 21.47 35.07 22.85 32.52 22.85 32.47 28.72 22.26 28.72 22.26 28.72 26.78 28.72 31.31 28.72 35.84 28.72 36.04 28.92 36.15 29.13 36.15 30.73 36.15 32.33 36.15 33.93 36.15 34.13 36.15 34.34 36.04 34.34 35.84 34.34 27.55 34.34 19.26 34.34 10.98 34.34 10.87 34.29 10.78 34.21 10.72 34.13 10.65 34.03 10.62 33.93 10.62">
<animate attributeName="d" begin="indefinite" calcMode="spline" dur="200ms" fill="freeze" id="js-logo-icon" keySplines="0.23 1 0.32 1" repeatCount="1" to="M33.97 10.62 C25.88 10.62 17.8 10.62 9.72 10.62 9.48 10.62 9.27 10.82 9.27 11.06 9.27 12.63 9.27 14.21 9.27 15.79 9.27 16.03 9.48 16.23 9.72 16.23 14.69 16.23 19.66 16.23 24.63 16.23 24.69 16.23 24.72 16.3 24.68 16.34 20.23 20.81 15.79 25.28 11.35 29.75 9.84 31.25 8.22 30.81 7.73 30.62 7.24 30.43 5.62 29.65 5.62 27.55 5.62 22.05 5.62 16.55 5.62 11.06 5.62 10.82 5.42 10.62 5.18 10.62 3.6 10.62 2.02 10.62 0.45 10.62 0.21 10.62 0.01 10.82 0.01 11.06 0.01 16.44 0.01 21.82 0.01 27.2 0.01 30.29 1.41 33.33 4.01 34.99 5.56 35.97 7.26 36.45 8.93 36.45 11.37 36.45 13.57 35.39 15.46 33.56 19.84 29.14 24.22 24.73 28.61 20.32 28.65 20.28 28.72 20.3 28.72 20.37 28.72 25.32 28.72 30.28 28.72 35.24 28.72 35.47 28.92 35.68 29.16 35.68 30.73 35.68 32.31 35.68 33.89 35.68 34.13 35.68 34.33 35.47 34.33 35.24 34.33 27.15 34.33 19.07 34.33 10.99 34.34 10.79 34.17 10.62 33.97 10.62"></animate>
<animate attributeName="d" begin="indefinite" calcMode="spline" dur="200ms" fill="freeze" id="js-logo-wordmark" keySplines="0.23 1 0.32 1" repeatCount="1" to="M33.93 10.62 C32.48 10.62 31.03 10.62 29.59 10.62 29.39 10.62 29.23 10.72 29.13 10.88 28.21 12.52 27.29 14.16 26.37 15.8 26.29 15.94 26.21 16.07 26.13 16.22 26.12 16.22 26.12 16.23 26.12 16.23 26.1 16.27 26.08 16.31 26.06 16.35 23.57 20.77 21.09 25.19 18.61 29.62 18.05 30.59 17.38 31.05 16.16 31.05 14.58 31.05 13.61 30.13 13.61 28.45 13.61 22.64 13.61 16.83 13.61 11.03 13.61 10.83 13.41 10.62 13.2 10.62 11.58 10.62 9.97 10.62 8.36 10.62 8.19 10.62 8 10.82 8 11.03 8 16.85 8 22.67 8 28.49 8 31.6 9.43 34.06 11.76 35.38 12.99 36.07 14.46 36.45 16.11 36.45 19.38 36.45 21.47 35.07 22.85 32.52 22.85 32.47 28.72 22.26 28.72 22.26 28.72 26.78 28.72 31.31 28.72 35.84 28.72 36.04 28.92 36.15 29.13 36.15 30.73 36.15 32.33 36.15 33.93 36.15 34.13 36.15 34.34 36.04 34.34 35.84 34.34 27.55 34.34 19.26 34.34 10.98 34.34 10.87 34.29 10.78 34.21 10.72 34.13 10.65 34.03 10.62 33.93 10.62"></animate>
</path>
<path class="b" d="M54.35,10.31c-3.11,0-5.92,1.23-7.5,2.96V2.81c0-0.2-0.15-0.36-0.36-0.36h-4.9c-0.15,0-0.36,0.15-0.36,0.36v32.98c0,0.2,0.2,0.36,0.36,0.36h4.9c0.2,0,0.36-0.15,0.36-0.36v-2.25c1.63,1.53,4.19,2.91,7.5,2.91c7.66,0,12.81-5.1,12.81-13.07C67.17,15.42,62.01,10.31,54.35,10.31z M54.05,31.04c-4.39,0-7.25-3.27-7.25-7.66c0-4.44,2.86-7.61,7.25-7.61c4.49,0,7.4,3.17,7.4,7.61C61.45,27.77,58.54,31.04,54.05,31.04z"></path>
<path class="i" d="M79.01,3.83c0,2.14-1.74,3.78-3.83,3.78c-2.2,0-3.88-1.63-3.88-3.83c0-2.19,1.74-3.83,3.93-3.78C77.33,0,79.01,1.64,79.01,3.83z M77.58,10.62h-4.85c-0.2,0-0.41,0.2-0.41,0.41v24.81c0,0.2,0.2,0.31,0.41,0.31h4.85c0.2,0,0.36-0.1,0.36-0.31V11.03C77.94,10.82,77.79,10.62,77.58,10.62z"></path>
<path class="l" d="M90.04,2.45h-4.85c-0.15,0-0.36,0.15-0.36,0.36v33.03c0,0.2,0.2,0.31,0.36,0.31h4.85c0.2,0,0.41-0.1,0.41-0.31V2.81C90.45,2.6,90.24,2.45,90.04,2.45z"></path>
<path class="a" d="M121.18,10.62h-4.85c-0.26,0-0.41,0.2-0.41,0.41v2.35c-1.02-1.43-3.98-3.06-7.35-3.06c-7.35,0-12.97,5.41-12.97,13.07s5.62,13.07,12.97,13.07c3.42,0,6.33-1.63,7.35-3.01v2.35c0,0.2,0.15,0.36,0.41,0.36h4.85c0.2,0,0.36-0.15,0.36-0.36V11.03C121.54,10.82,121.38,10.62,121.18,10.62z M108.77,31.04c-4.24,0-7.45-3.47-7.45-7.66c0-4.24,3.22-7.61,7.45-7.61c4.19,0,7.25,3.37,7.25,7.61C116.02,27.57,112.96,31.04,108.77,31.04z"></path>
<path class="b" d="M141.55,10.31c-3.17,0-5.87,1.23-7.5,2.96V2.81c0-0.2-0.15-0.36-0.36-0.36h-4.95c-0.15,0-0.31,0.15-0.31,0.36v32.98c0,0.2,0.15,0.36,0.31,0.36h4.95c0.2,0,0.36-0.15,0.36-0.36v-2.25c1.68,1.53,4.19,2.91,7.5,2.91c7.61,0,12.81-5.1,12.81-13.07C154.36,15.42,149.16,10.31,141.55,10.31z M141.29,31.04c-4.49,0-7.3-3.27-7.3-7.66c0-4.44,2.81-7.61,7.3-7.61c4.49,0,7.35,3.17,7.35,7.61C148.65,27.77,145.79,31.04,141.29,31.04z"></path>
<path class="s" d="M170.39,21.19c-4.59-1.02-6.23-1.38-6.23-3.17c0-1.79,1.33-2.6,4.08-2.6c2.55,0,5.31,1.12,6.43,1.84c0.15,0.1,0.41,0.05,0.51-0.15l2.04-3.68c0.1-0.2,0.1-0.41-0.1-0.56c-2.2-1.53-5.51-2.55-9.04-2.55c-6.33,0-9.6,3.22-9.6,7.71c0,4.13,2.35,6.43,7.81,7.5c4.49,0.87,6.02,1.48,6.02,3.27c0,1.74-1.33,2.65-4.39,2.65c-2.5,0-5.51-0.97-7.61-2.35c-0.15-0.1-0.36-0.05-0.46,0.1l-2.2,3.88c-0.1,0.2-0.1,0.46,0.05,0.56c3.06,1.99,6.84,2.91,10.52,2.91c6.23,0,9.75-3.22,9.75-7.96C178,24.61,175.75,22.36,170.39,21.19z"></path>
</svg>